name ./resultDataOpenSim/trcMotMarkerGrf/sub06/grf-13-05.mot
datacolumns 19
datarows 15
range 0.98400000 1.04000000
endheader

                time	     ground_force_vx	     ground_force_vy	     ground_force_vz	     ground_force_px	     ground_force_py	     ground_force_pz	   l_ground_force_vx	   l_ground_force_vy	   l_ground_force_vz	   l_ground_force_px	   l_ground_force_py	   l_ground_force_pz	     ground_torque_x	     ground_torque_y	     ground_torque_z	   l_ground_torque_x	   l_ground_torque_y	   l_ground_torque_z	
          0.98400000	          0.00000000	          0.00000000	          0.00000000	          0.00000000	          0.00000000	          0.00000000	        115.81183123	        640.68780457	         30.56545149	          0.11814208	         -0.05000200	         -0.03044109	          0.00000000	          0.00000000	          0.00000000	          0.00000000	         -3.27972483	          0.00000000	
          0.98800000	          0.00000000	          0.00000000	          0.00000000	          0.00000000	          0.00000000	          0.00000000	        123.55399499	        651.73774754	         30.14656655	          0.11870980	         -0.05000200	         -0.03008646	          0.00000000	          0.00000000	          0.00000000	          0.00000000	         -3.35718318	          0.00000000	
          0.99200000	          0.00000000	          0.00000000	          0.00000000	          0.00000000	          0.00000000	          0.00000000	        131.51762007	        660.83499185	         29.60166020	          0.11918433	         -0.05000200	         -0.02975920	          0.00000000	          0.00000000	          0.00000000	          0.00000000	         -3.41609357	          0.00000000	
          0.99600000	          0.00000000	          0.00000000	          0.00000000	          0.00000000	          0.00000000	          0.00000000	        139.63527626	        667.83495762	         28.92026430	          0.11957875	         -0.05000198	         -0.02943597	          0.00000000	          0.00000000	          0.00000000	          0.00000000	         -3.45895554	          0.00000000	
          1.00000000	          0.00000000	          0.00000000	          0.00000000	          0.00000000	          0.00000000	          0.00000000	        147.77384642	        672.56312936	         28.07239611	          0.11995491	         -0.05000150	         -0.02908417	          0.00000000	          0.00000000	          0.00000000	          0.00000000	         -3.48833517	          0.00000000	
          1.00400000	          0.00000000	          0.00000000	          0.00000000	          0.00000000	          0.00000000	          0.00000000	        155.73729771	        674.86601833	         27.02871502	          0.12037260	         -0.05000134	         -0.02868925	          0.00000000	          0.00000000	          0.00000000	          0.00000000	         -3.50593321	          0.00000000	
          1.00800000	          0.00000000	          0.00000000	          0.00000000	          0.00000000	          0.00000000	          0.00000000	        163.30692039	        674.58632679	         25.79197199	          0.12084089	         -0.05000103	         -0.02827188	          0.00000000	          0.00000000	          0.00000000	          0.00000000	         -3.51192470	          0.00000000	
          1.01200000	          0.00000000	          0.00000000	          0.00000000	          0.00000000	          0.00000000	          0.00000000	        170.30692926	        671.53620408	         24.40702647	          0.12135086	         -0.05000100	         -0.02786723	          0.00000000	          0.00000000	          0.00000000	          0.00000000	         -3.50481127	          0.00000000	
          1.01600000	          0.00000000	          0.00000000	          0.00000000	          0.00000000	          0.00000000	          0.00000000	        176.64396325	        665.53260171	         22.93869862	          0.12189451	         -0.05000100	         -0.02749147	          0.00000000	          0.00000000	          0.00000000	          0.00000000	         -3.48184759	          0.00000000	
          1.02000000	          0.00000000	          0.00000000	          0.00000000	          0.00000000	          0.00000000	          0.00000000	        182.26134498	        656.43177379	         21.44245107	          0.12247762	         -0.05000073	         -0.02712968	          0.00000000	          0.00000000	          0.00000000	          0.00000000	         -3.43976432	          0.00000000	
          1.02400000	          0.00000000	          0.00000000	          0.00000000	          0.00000000	          0.00000000	          0.00000000	        187.05465323	        644.11421682	         19.95006408	          0.12308956	         -0.05000016	         -0.02676855	          0.00000000	          0.00000000	          0.00000000	          0.00000000	         -3.37532161	          0.00000000	
          1.02800000	          0.00000000	          0.00000000	          0.00000000	          0.00000000	          0.00000000	          0.00000000	        190.83621699	        628.43910750	         18.46211373	          0.12368602	         -0.05000000	         -0.02641702	          0.00000000	          0.00000000	          0.00000000	          0.00000000	         -3.28545347	          0.00000000	
          1.03200000	         -1.88054048	         12.99260536	          3.70700134	          0.77692527	          0.00000000	          0.07971036	        193.34815937	        609.18498693	         16.95237807	          0.12423390	         -0.04999943	         -0.02610181	          0.00000000	          0.22151876	          0.00000000	          0.00000000	         -3.16722141	          0.00000000	
          1.03600000	        -16.12928607	        171.60021375	         13.23242358	          0.78236402	          0.00000000	          0.07873055	        194.28032060	        586.01606692	         15.39813136	          0.12475316	         -0.04999906	         -0.02584877	          0.00000000	          0.22450512	          0.00000000	          0.00000000	         -3.01803162	          0.00000000	
          1.04000000	        -31.14736526	        318.26302306	         21.98273691	          0.78723462	          0.00000000	          0.07789582	        193.28237491	        558.54466887	         13.81342376	          0.12531069	         -0.04999900	         -0.02567268	          0.00000000	          0.20624471	          0.00000000	          0.00000000	         -2.83636025	          0.00000000	
